<mxfile host="app.diagrams.net" modified="2023-05-13T03:01:57.778Z" agent="Mozilla/5.0 (Macintosh; Intel Mac OS X 10_15_7) AppleWebKit/537.36 (KHTML, like Gecko) Chrome/113.0.0.0 Safari/537.36" version="21.3.0" etag="Co8d-bCkxL4CWd87E-Ap" type="github">
  <diagram name="Page-1" id="J892R_QdKgXwNg61yNqS">
    <mxGraphModel>
      <root>
        <mxCell id="0" />
        <mxCell id="1" parent="0" />
      </root>
    </mxGraphModel>
  </diagram>
</mxfile>
